<svg xmlns="http://www.w3.org/2000/svg" viewBox="0 0 512 512">
  <defs>
    <linearGradient id="bg" x1="0%" y1="0%" x2="100%" y2="100%">
      <stop offset="0%" stop-color="#07111f"/>
      <stop offset="55%" stop-color="#123c7a"/>
      <stop offset="100%" stop-color="#241152"/>
    </linearGradient>
    <radialGradient id="glowA" cx="18%" cy="82%" r="56%">
      <stop offset="0%" stop-color="#26d8ff" stop-opacity=".42"/>
      <stop offset="100%" stop-color="#26d8ff" stop-opacity="0"/>
    </radialGradient>
    <radialGradient id="glowB" cx="82%" cy="14%" r="48%">
      <stop offset="0%" stop-color="#8b5cff" stop-opacity=".38"/>
      <stop offset="100%" stop-color="#8b5cff" stop-opacity="0"/>
    </radialGradient>
    <linearGradient id="phone" x1="0%" y1="0%" x2="100%" y2="100%">
      <stop offset="0%" stop-color="#eaf6ff"/>
      <stop offset="100%" stop-color="#7bc6ff"/>
    </linearGradient>
    <linearGradient id="tiles" x1="0%" y1="0%" x2="100%" y2="100%">
      <stop offset="0%" stop-color="#ffd96a"/>
      <stop offset="100%" stop-color="#ff9d43"/>
    </linearGradient>
  </defs>

  <rect width="512" height="512" rx="118" fill="url(#bg)"/>
  <rect width="512" height="512" rx="118" fill="url(#glowA)"/>
  <rect width="512" height="512" rx="118" fill="url(#glowB)"/>

  <rect x="46" y="46" width="420" height="420" rx="92" fill="none" stroke="rgba(255,255,255,.08)"/>

  <g opacity=".95">
    <path d="M256 92c34 0 62 28 62 62h-26c0-20-16-36-36-36s-36 16-36 36h-26c0-34 28-62 62-62Z" fill="#38dbff"/>
    <path d="M256 122c18 0 32 14 32 32h-20c0-7-5-12-12-12s-12 5-12 12h-20c0-18 14-32 32-32Z" fill="#9cf1ff"/>
    <circle cx="256" cy="154" r="7" fill="#dffbff"/>
  </g>

  <rect x="164" y="144" width="184" height="240" rx="40" fill="#0a1324" stroke="url(#phone)" stroke-width="12"/>
  <rect x="186" y="176" width="140" height="170" rx="24" fill="rgba(255,255,255,.04)" stroke="rgba(123,198,255,.20)" stroke-width="2"/>
  <rect x="228" y="358" width="56" height="8" rx="4" fill="#9fdcff"/>

  <g fill="url(#tiles)">
    <rect x="206" y="196" width="40" height="40" rx="12"/>
    <rect x="266" y="196" width="40" height="40" rx="12"/>
    <rect x="206" y="252" width="40" height="40" rx="12"/>
    <rect x="266" y="252" width="40" height="40" rx="12"/>
  </g>

  <path d="M188 330c16-25 41-40 68-40s52 15 68 40" fill="none" stroke="#38dbff" stroke-linecap="round" stroke-width="12"/>
</svg>
